# xmcd
#
# Track frame offsets:
#	150
#	13934
#	28322
#	47748
#	60973
#	74880
#	89912
#	102075
#	116253
#	129944
#	144862
#	156836
#	172414
#	188346
#	205340
#	220780
#	235119
#	250356
#	263846
#	281935
#	294737
#
# Disc length: 4121 seconds
#
# Revision: 1
# Processed by: cddbd v1.5.2PL0 Copyright (c) Steve Scherf et al.
# Submitted via: audiograbber 1.83.01
#
DISCID=44101715
DTITLE=versch - Gute Wahl Hit Frühling 2 CD 2
DYEAR=2002
DGENRE=Schlager
TTITLE0=Arland, Maxi - Ich hör Chopin
TTITLE1=Harzbecker, Astrid - Erstes Morgenrot
TTITLE2=HOI - Trag meine Liebe
TTITLE3=Patricius - Ich bin Dein Freund
TTITLE4=Bergfeuer - Der Falke
TTITLE5=Scholz, Walter - Taigaträume
TTITLE6=Marieke - Zwischen den Meeren
TTITLE7=Godewind - Wo de Nordseewellen
TTITLE8=Silbereisen, Florian - Die Madln vom Land
TTITLE9=Duo Thomasius - Alltag Adieu
TTITLE10=Petrel, Peter - Ich will nochmal
TTITLE11=Sebastian, Peter - Vergiss mein Herz nicht, wenn Du gehst
TTITLE12=Andrea and Manuela mit Dimov, Dimo - Mach die Augen zu und schlaf ein
TTITLE13=Rusinskiy, Bernd - Wir tanzten einen Sommer lang
TTITLE14=Jenney - Gib Deinem Herzen ein Zeichen
TTITLE15=Göppelt, Ekki - Sing mit mir
TTITLE16=Rosi and Erika - Viva la Montagna
TTITLE17=Menzel, Achim - He Amanda
TTITLE18=Helena - Costa Mykonos
TTITLE19=Sibylle - Die Zeit heilt alle Wunden
TTITLE20=Lenz, Matthias - Das letzte Abendrot
EXTD=
EXTT0=
EXTT1=
EXTT2=
EXTT3=
EXTT4=
EXTT5=
EXTT6=
EXTT7=
EXTT8=
EXTT9=
EXTT10=
EXTT11=
EXTT12=
EXTT13=
EXTT14=
EXTT15=
EXTT16=
EXTT17=
EXTT18=
EXTT19=
EXTT20=
PLAYORDER=
